<?xml version="1.0" encoding="UTF-8" ?>
<svg version="1.1" width="32" height="32" xmlns="http://www.w3.org/2000/svg" shape-rendering="crispEdges">
<rect x="4" y="5" width="1" height="1" fill="#847E87" />
<rect x="27" y="5" width="1" height="1" fill="#847E87" />
<rect x="3" y="6" width="1" height="1" fill="#847E87" />
<rect x="28" y="6" width="1" height="1" fill="#847E87" />
<rect x="3" y="7" width="1" height="1" fill="#847E87" />
<rect x="4" y="7" width="1" height="1" fill="#847E87" />
<rect x="27" y="7" width="1" height="1" fill="#847E87" />
<rect x="28" y="7" width="1" height="1" fill="#847E87" />
<rect x="3" y="8" width="1" height="1" fill="#847E87" />
<rect x="4" y="8" width="1" height="1" fill="#FBF236" />
<rect x="5" y="8" width="1" height="1" fill="#847E87" />
<rect x="26" y="8" width="1" height="1" fill="#847E87" />
<rect x="27" y="8" width="1" height="1" fill="#FBF236" />
<rect x="28" y="8" width="1" height="1" fill="#847E87" />
<rect x="4" y="9" width="1" height="1" fill="#847E87" />
<rect x="5" y="9" width="1" height="1" fill="#FBF236" />
<rect x="6" y="9" width="1" height="1" fill="#847E87" />
<rect x="7" y="9" width="1" height="1" fill="#847E87" />
<rect x="8" y="9" width="1" height="1" fill="#847E87" />
<rect x="9" y="9" width="1" height="1" fill="#847E87" />
<rect x="10" y="9" width="1" height="1" fill="#847E87" />
<rect x="11" y="9" width="1" height="1" fill="#847E87" />
<rect x="20" y="9" width="1" height="1" fill="#847E87" />
<rect x="21" y="9" width="1" height="1" fill="#847E87" />
<rect x="22" y="9" width="1" height="1" fill="#847E87" />
<rect x="23" y="9" width="1" height="1" fill="#847E87" />
<rect x="24" y="9" width="1" height="1" fill="#847E87" />
<rect x="25" y="9" width="1" height="1" fill="#847E87" />
<rect x="26" y="9" width="1" height="1" fill="#FBF236" />
<rect x="27" y="9" width="1" height="1" fill="#847E87" />
<rect x="5" y="10" width="1" height="1" fill="#847E87" />
<rect x="6" y="10" width="1" height="1" fill="#FBF236" />
<rect x="7" y="10" width="1" height="1" fill="#FBF236" />
<rect x="8" y="10" width="1" height="1" fill="#FBF236" />
<rect x="9" y="10" width="1" height="1" fill="#FBF236" />
<rect x="10" y="10" width="1" height="1" fill="#FBF236" />
<rect x="11" y="10" width="1" height="1" fill="#FBF236" />
<rect x="12" y="10" width="1" height="1" fill="#847E87" />
<rect x="13" y="10" width="1" height="1" fill="#847E87" />
<rect x="14" y="10" width="1" height="1" fill="#847E87" />
<rect x="15" y="10" width="1" height="1" fill="#847E87" />
<rect x="16" y="10" width="1" height="1" fill="#847E87" />
<rect x="17" y="10" width="1" height="1" fill="#847E87" />
<rect x="18" y="10" width="1" height="1" fill="#847E87" />
<rect x="19" y="10" width="1" height="1" fill="#847E87" />
<rect x="20" y="10" width="1" height="1" fill="#FBF236" />
<rect x="21" y="10" width="1" height="1" fill="#FBF236" />
<rect x="22" y="10" width="1" height="1" fill="#FBF236" />
<rect x="23" y="10" width="1" height="1" fill="#FBF236" />
<rect x="24" y="10" width="1" height="1" fill="#FBF236" />
<rect x="25" y="10" width="1" height="1" fill="#FBF236" />
<rect x="26" y="10" width="1" height="1" fill="#847E87" />
<rect x="6" y="11" width="1" height="1" fill="#847E87" />
<rect x="7" y="11" width="1" height="1" fill="#847E87" />
<rect x="8" y="11" width="1" height="1" fill="#847E87" />
<rect x="9" y="11" width="1" height="1" fill="#847E87" />
<rect x="10" y="11" width="1" height="1" fill="#847E87" />
<rect x="11" y="11" width="1" height="1" fill="#9BADB7" />
<rect x="12" y="11" width="1" height="1" fill="#FBF236" />
<rect x="13" y="11" width="1" height="1" fill="#9BADB7" />
<rect x="14" y="11" width="1" height="1" fill="#9BADB7" />
<rect x="15" y="11" width="1" height="1" fill="#9BADB7" />
<rect x="16" y="11" width="1" height="1" fill="#9BADB7" />
<rect x="17" y="11" width="1" height="1" fill="#9BADB7" />
<rect x="18" y="11" width="1" height="1" fill="#9BADB7" />
<rect x="19" y="11" width="1" height="1" fill="#FBF236" />
<rect x="20" y="11" width="1" height="1" fill="#9BADB7" />
<rect x="21" y="11" width="1" height="1" fill="#847E87" />
<rect x="22" y="11" width="1" height="1" fill="#847E87" />
<rect x="23" y="11" width="1" height="1" fill="#847E87" />
<rect x="24" y="11" width="1" height="1" fill="#847E87" />
<rect x="25" y="11" width="1" height="1" fill="#847E87" />
<rect x="11" y="12" width="1" height="1" fill="#847E87" />
<rect x="12" y="12" width="1" height="1" fill="#9BADB7" />
<rect x="13" y="12" width="1" height="1" fill="#FBF236" />
<rect x="14" y="12" width="1" height="1" fill="#9BADB7" />
<rect x="15" y="12" width="1" height="1" fill="#9BADB7" />
<rect x="16" y="12" width="1" height="1" fill="#9BADB7" />
<rect x="17" y="12" width="1" height="1" fill="#9BADB7" />
<rect x="18" y="12" width="1" height="1" fill="#FBF236" />
<rect x="19" y="12" width="1" height="1" fill="#9BADB7" />
<rect x="20" y="12" width="1" height="1" fill="#847E87" />
<rect x="12" y="13" width="1" height="1" fill="#847E87" />
<rect x="13" y="13" width="1" height="1" fill="#9BADB7" />
<rect x="14" y="13" width="1" height="1" fill="#FBF236" />
<rect x="15" y="13" width="1" height="1" fill="#9BADB7" />
<rect x="16" y="13" width="1" height="1" fill="#9BADB7" />
<rect x="17" y="13" width="1" height="1" fill="#FBF236" />
<rect x="18" y="13" width="1" height="1" fill="#9BADB7" />
<rect x="19" y="13" width="1" height="1" fill="#847E87" />
<rect x="13" y="14" width="1" height="1" fill="#847E87" />
<rect x="14" y="14" width="1" height="1" fill="#9BADB7" />
<rect x="15" y="14" width="1" height="1" fill="#FBF236" />
<rect x="16" y="14" width="1" height="1" fill="#FBF236" />
<rect x="17" y="14" width="1" height="1" fill="#9BADB7" />
<rect x="18" y="14" width="1" height="1" fill="#847E87" />
<rect x="13" y="15" width="1" height="1" fill="#847E87" />
<rect x="14" y="15" width="1" height="1" fill="#9BADB7" />
<rect x="15" y="15" width="1" height="1" fill="#FBF236" />
<rect x="16" y="15" width="1" height="1" fill="#FBF236" />
<rect x="17" y="15" width="1" height="1" fill="#9BADB7" />
<rect x="18" y="15" width="1" height="1" fill="#847E87" />
<rect x="13" y="16" width="1" height="1" fill="#847E87" />
<rect x="14" y="16" width="1" height="1" fill="#9BADB7" />
<rect x="15" y="16" width="1" height="1" fill="#FBF236" />
<rect x="16" y="16" width="1" height="1" fill="#FBF236" />
<rect x="17" y="16" width="1" height="1" fill="#9BADB7" />
<rect x="18" y="16" width="1" height="1" fill="#847E87" />
<rect x="13" y="17" width="1" height="1" fill="#847E87" />
<rect x="14" y="17" width="1" height="1" fill="#9BADB7" />
<rect x="15" y="17" width="1" height="1" fill="#FBF236" />
<rect x="16" y="17" width="1" height="1" fill="#FBF236" />
<rect x="17" y="17" width="1" height="1" fill="#9BADB7" />
<rect x="18" y="17" width="1" height="1" fill="#847E87" />
<rect x="13" y="18" width="1" height="1" fill="#847E87" />
<rect x="14" y="18" width="1" height="1" fill="#9BADB7" />
<rect x="15" y="18" width="1" height="1" fill="#FBF236" />
<rect x="16" y="18" width="1" height="1" fill="#FBF236" />
<rect x="17" y="18" width="1" height="1" fill="#9BADB7" />
<rect x="18" y="18" width="1" height="1" fill="#847E87" />
<rect x="13" y="19" width="1" height="1" fill="#847E87" />
<rect x="14" y="19" width="1" height="1" fill="#9BADB7" />
<rect x="15" y="19" width="1" height="1" fill="#FBF236" />
<rect x="16" y="19" width="1" height="1" fill="#FBF236" />
<rect x="17" y="19" width="1" height="1" fill="#9BADB7" />
<rect x="18" y="19" width="1" height="1" fill="#847E87" />
<rect x="13" y="20" width="1" height="1" fill="#847E87" />
<rect x="14" y="20" width="1" height="1" fill="#FBF236" />
<rect x="15" y="20" width="1" height="1" fill="#9BADB7" />
<rect x="16" y="20" width="1" height="1" fill="#9BADB7" />
<rect x="17" y="20" width="1" height="1" fill="#FBF236" />
<rect x="18" y="20" width="1" height="1" fill="#847E87" />
<rect x="13" y="21" width="1" height="1" fill="#847E87" />
<rect x="14" y="21" width="1" height="1" fill="#FBF236" />
<rect x="15" y="21" width="1" height="1" fill="#9BADB7" />
<rect x="16" y="21" width="1" height="1" fill="#9BADB7" />
<rect x="17" y="21" width="1" height="1" fill="#FBF236" />
<rect x="18" y="21" width="1" height="1" fill="#847E87" />
<rect x="13" y="22" width="1" height="1" fill="#847E87" />
<rect x="14" y="22" width="1" height="1" fill="#9BADB7" />
<rect x="15" y="22" width="1" height="1" fill="#FBF236" />
<rect x="16" y="22" width="1" height="1" fill="#FBF236" />
<rect x="17" y="22" width="1" height="1" fill="#9BADB7" />
<rect x="18" y="22" width="1" height="1" fill="#847E87" />
<rect x="13" y="23" width="1" height="1" fill="#847E87" />
<rect x="14" y="23" width="1" height="1" fill="#9BADB7" />
<rect x="15" y="23" width="1" height="1" fill="#FBF236" />
<rect x="16" y="23" width="1" height="1" fill="#FBF236" />
<rect x="17" y="23" width="1" height="1" fill="#9BADB7" />
<rect x="18" y="23" width="1" height="1" fill="#847E87" />
<rect x="13" y="24" width="1" height="1" fill="#847E87" />
<rect x="14" y="24" width="1" height="1" fill="#9BADB7" />
<rect x="15" y="24" width="1" height="1" fill="#FBF236" />
<rect x="16" y="24" width="1" height="1" fill="#FBF236" />
<rect x="17" y="24" width="1" height="1" fill="#9BADB7" />
<rect x="18" y="24" width="1" height="1" fill="#847E87" />
<rect x="13" y="25" width="1" height="1" fill="#847E87" />
<rect x="14" y="25" width="1" height="1" fill="#9BADB7" />
<rect x="15" y="25" width="1" height="1" fill="#FBF236" />
<rect x="16" y="25" width="1" height="1" fill="#FBF236" />
<rect x="17" y="25" width="1" height="1" fill="#9BADB7" />
<rect x="18" y="25" width="1" height="1" fill="#847E87" />
<rect x="12" y="26" width="1" height="1" fill="#847E87" />
<rect x="13" y="26" width="1" height="1" fill="#847E87" />
<rect x="14" y="26" width="1" height="1" fill="#9BADB7" />
<rect x="15" y="26" width="1" height="1" fill="#FBF236" />
<rect x="16" y="26" width="1" height="1" fill="#FBF236" />
<rect x="17" y="26" width="1" height="1" fill="#9BADB7" />
<rect x="18" y="26" width="1" height="1" fill="#847E87" />
<rect x="19" y="26" width="1" height="1" fill="#847E87" />
<rect x="11" y="27" width="1" height="1" fill="#847E87" />
<rect x="12" y="27" width="1" height="1" fill="#FBF236" />
<rect x="13" y="27" width="1" height="1" fill="#847E87" />
<rect x="14" y="27" width="1" height="1" fill="#FBF236" />
<rect x="15" y="27" width="1" height="1" fill="#9BADB7" />
<rect x="16" y="27" width="1" height="1" fill="#9BADB7" />
<rect x="17" y="27" width="1" height="1" fill="#FBF236" />
<rect x="18" y="27" width="1" height="1" fill="#847E87" />
<rect x="19" y="27" width="1" height="1" fill="#FBF236" />
<rect x="20" y="27" width="1" height="1" fill="#847E87" />
<rect x="11" y="28" width="1" height="1" fill="#847E87" />
<rect x="12" y="28" width="1" height="1" fill="#9BADB7" />
<rect x="13" y="28" width="1" height="1" fill="#FBF236" />
<rect x="14" y="28" width="1" height="1" fill="#847E87" />
<rect x="15" y="28" width="1" height="1" fill="#9BADB7" />
<rect x="16" y="28" width="1" height="1" fill="#9BADB7" />
<rect x="17" y="28" width="1" height="1" fill="#847E87" />
<rect x="18" y="28" width="1" height="1" fill="#FBF236" />
<rect x="19" y="28" width="1" height="1" fill="#9BADB7" />
<rect x="20" y="28" width="1" height="1" fill="#847E87" />
<rect x="11" y="29" width="1" height="1" fill="#847E87" />
<rect x="12" y="29" width="1" height="1" fill="#9BADB7" />
<rect x="13" y="29" width="1" height="1" fill="#9BADB7" />
<rect x="14" y="29" width="1" height="1" fill="#9BADB7" />
<rect x="15" y="29" width="1" height="1" fill="#9BADB7" />
<rect x="16" y="29" width="1" height="1" fill="#9BADB7" />
<rect x="17" y="29" width="1" height="1" fill="#9BADB7" />
<rect x="18" y="29" width="1" height="1" fill="#9BADB7" />
<rect x="19" y="29" width="1" height="1" fill="#9BADB7" />
<rect x="20" y="29" width="1" height="1" fill="#847E87" />
<rect x="12" y="30" width="1" height="1" fill="#847E87" />
<rect x="13" y="30" width="1" height="1" fill="#9BADB7" />
<rect x="14" y="30" width="1" height="1" fill="#9BADB7" />
<rect x="15" y="30" width="1" height="1" fill="#9BADB7" />
<rect x="16" y="30" width="1" height="1" fill="#9BADB7" />
<rect x="17" y="30" width="1" height="1" fill="#9BADB7" />
<rect x="18" y="30" width="1" height="1" fill="#9BADB7" />
<rect x="19" y="30" width="1" height="1" fill="#847E87" />
<rect x="13" y="31" width="1" height="1" fill="#847E87" />
<rect x="14" y="31" width="1" height="1" fill="#847E87" />
<rect x="15" y="31" width="1" height="1" fill="#847E87" />
<rect x="16" y="31" width="1" height="1" fill="#847E87" />
<rect x="17" y="31" width="1" height="1" fill="#847E87" />
<rect x="18" y="31" width="1" height="1" fill="#847E87" />
</svg>